<svg xmlns="http://www.w3.org/2000/svg" viewBox="0 0 64 64">
  <!-- Background circle -->
  <circle cx="32" cy="32" r="32" fill="#0284c7"/>
  <!-- Tooth shape in white -->
  <path
    d="M32 8C25.4 8 20 12.4 20 18c0 3.9 2 6.5 2 10s-2 9 0 15c.9 2.7 2.7 3.6 4.5 3.6s2.7-1.8 4.5-1.8 2.7 1.8 4.5 1.8 3.6-.9 4.5-3.6c2-6 0-11.5 0-15s2-6.1 2-10c0-5.6-5.4-10-10-10zm0 3.6c3 0 6.4 2.4 6.4 6.4 0 0-1.8 2.7-1.8 10s1.8 10.9 0 15c-.4 1.1-.9 1.4-1.8 1.4s-1.4-.9-3.6-.9-2.7.9-3.6.9-.9-.4-1.4-1.4c-1.8-4.1 0-7.7 0-15s-1.8-10-1.8-10c0-4 2.6-6.4 5.6-6.4z"
    fill="white"
  />
</svg>